<svg width="61" height="70" viewBox="0 0 61 70" fill="none" xmlns="http://www.w3.org/2000/svg">
<path fill-rule="evenodd" clip-rule="evenodd" d="M8.82051 31.281C9.33903 33.1579 10.0895 33.8391 10.9219 34.8818C10.4989 36.2443 6.93747 39.136 5.32733 41.708C4.64507 39.9424 3.97645 39.9007 3.23961 38.1768C5.08172 34.715 7.26495 33.8113 8.82051 31.281ZM9.55735 26.4846C10.5534 30.0993 12.4774 32.9771 14.0739 35.0069C13.2552 37.6206 8.13824 42.0139 5.02713 46.9632C3.71719 43.571 1.46573 41.4717 0.0466309 38.1489C3.78542 31.8232 6.5554 31.1142 9.55735 26.4846Z" fill="#ED1C24"/>
<path fill-rule="evenodd" clip-rule="evenodd" d="M6.21465 35.8828C6.46026 35.4102 7.30627 34.9514 7.79749 35.5909C8.17956 36.2582 7.86572 37.0229 7.52459 37.5234C7.56552 37.1619 7.64739 36.4946 7.38813 36.0775C7.10158 35.6048 6.66494 35.6187 6.21465 35.8828ZM8.82088 31.2811C9.3394 33.1579 10.0899 33.8391 10.9222 34.8819C10.4992 36.2443 6.93784 39.1361 5.32771 41.7081C4.64545 39.9424 3.97683 39.9007 3.23999 38.1768C5.08209 34.715 7.26533 33.8113 8.82088 31.2811Z" fill="#00A651"/>
<path fill-rule="evenodd" clip-rule="evenodd" d="M6.21411 35.8829C6.45973 35.4102 7.30573 34.9514 7.79696 35.5909C8.17902 36.2582 7.86518 37.0229 7.52405 37.5234C7.56499 37.1619 7.64685 36.4946 7.3876 36.0775C7.10105 35.6048 6.6644 35.6187 6.21411 35.8829Z" fill="white"/>
<path fill-rule="evenodd" clip-rule="evenodd" d="M52.2397 31.281C51.7212 33.1579 50.9707 33.8391 50.1383 34.8818C50.5613 36.2443 54.1227 39.136 55.7329 41.708C56.4151 39.9424 57.0838 39.9007 57.8206 38.1768C55.9785 34.715 53.7953 33.8113 52.2397 31.281ZM51.4892 26.2761C50.4931 29.8908 48.5691 32.7686 46.9727 34.7984C47.7914 37.4121 52.9083 41.8054 56.0194 46.7547C57.3294 43.3625 59.5808 41.2632 60.9999 37.9404C57.2612 31.6147 54.4775 30.9057 51.4892 26.2761Z" fill="#ED1C24"/>
<path fill-rule="evenodd" clip-rule="evenodd" d="M54.8463 35.7438C54.4642 35.3128 53.7683 34.9375 53.2771 35.6048C52.8541 36.2999 53.1816 37.0229 53.5363 37.5234C53.2907 36.3138 53.741 35.5909 54.8463 35.7438ZM52.24 31.2811C51.7215 33.1579 50.971 33.8391 50.1387 34.8819C50.5617 36.2443 54.1231 39.1361 55.7332 41.7081C56.4155 39.9424 57.0841 39.9007 57.8209 38.1768C55.9788 34.715 53.7956 33.8113 52.24 31.2811Z" fill="#00A651"/>
<path fill-rule="evenodd" clip-rule="evenodd" d="M54.8462 35.7438C54.4642 35.3128 53.7683 34.9374 53.277 35.6048C52.854 36.2999 53.1815 37.0229 53.5363 37.5233C53.2907 36.3138 53.741 35.5909 54.8462 35.7438Z" fill="white"/>
<path fill-rule="evenodd" clip-rule="evenodd" d="M36.3432 54.4707L51.4894 26.3039C51.8714 26.429 52.2262 26.3734 52.3627 26.151C52.5401 25.8451 52.2808 25.3724 51.7896 25.0666C51.2983 24.7746 50.7662 24.7746 50.5888 25.0666C50.4523 25.289 50.5751 25.6227 50.848 25.9007L35.1015 54.3178C35.5108 54.3595 35.9338 54.4151 36.3432 54.4707ZM25.7818 54.3039L10.0761 25.9007C10.349 25.6227 10.4718 25.289 10.3354 25.0666C10.158 24.7607 9.62584 24.7607 9.13462 25.0666C8.64339 25.3585 8.38413 25.8451 8.56151 26.151C8.69797 26.3873 9.05274 26.4429 9.43481 26.3039L24.5264 54.4429C24.9494 54.3873 25.3724 54.3317 25.7818 54.3039ZM29.657 59.9345C29.657 60.3098 29.6434 60.6852 29.6434 61.0606L29.0157 59.9206C28.5518 59.9345 28.1151 59.9901 27.6512 60.0179L29.6161 63.6882V64.4389C29.0839 66.4687 28.0878 67.7756 26.2867 67.8729C25.9865 67.8729 25.8364 68.0119 25.8637 68.29C25.8637 68.5402 25.8637 68.7766 25.8637 69.0268C25.85 69.3744 25.9592 69.5273 26.2184 69.4856C27.6648 69.3327 28.9884 69.9583 30.4484 70C31.8948 69.9583 33.2184 69.3327 34.6785 69.4856C34.9514 69.5273 35.0469 69.3744 35.0332 69.0268C35.0332 68.7766 35.0332 68.5402 35.0332 68.29C35.0605 68.0119 34.9104 67.8729 34.6102 67.8729C32.8091 67.7617 31.813 66.4548 31.2808 64.4389V63.6882L33.2457 60.0318C32.7818 60.004 32.3315 59.9623 31.8676 59.9484L31.2535 61.0745C31.2535 60.6991 31.2399 60.3098 31.2399 59.9345C30.6941 59.9206 30.1892 59.9206 29.657 59.9345ZM30.2847 25.6505L30.1346 26.4151C30.0664 35.6326 29.8754 44.864 29.7253 54.0814C29.9163 54.0814 30.121 54.0814 30.312 54.0814C30.5849 54.0814 30.8715 54.0814 31.1444 54.0814C31.0079 44.8501 30.8442 34.8679 30.7759 25.6227L30.2847 25.6505Z" fill="#A25742"/>
<mask id="mask0_489_6779" style="mask-type:luminance" maskUnits="userSpaceOnUse" x="12" y="54" width="37" height="12">
<path d="M17.0628 56.3476L17.595 58.1271C15.8074 58.6415 14.0609 59.2949 12.3416 60.3515L15.6846 61.3942L14.2109 65.0089C17.2402 63.6604 19.7918 62.7428 21.7158 62.4786C21.5521 62.0338 21.3747 61.575 21.2109 61.1301C27.1057 58.8083 35.593 59.3644 40.8464 61.4359C40.3688 61.6723 39.8776 61.9225 39.4 62.1728C39.3318 62.2423 39.2772 62.3257 39.209 62.3952C39.5228 62.5065 39.8503 62.6316 40.1642 62.7428L43.5482 63.716L46.5365 65.2036L46.0316 63.9106L45.0082 61.4359L48.2967 60.2959L45.9361 59.0586L42.9887 58.1966L43.5618 56.3754L39.5365 55.1241L32.441 54.2483L25.1271 54.5958C23.094 54.7349 21.0609 55.0407 19.0686 55.7219L17.0628 56.3476Z" fill="white"/>
</mask>
<g mask="url(#mask0_489_6779)">
<path d="M48.2831 54.2483H12.3552V65.2175H48.2831V54.2483Z" fill="url(#paint0_linear_489_6779)"/>
</g>
<path fill-rule="evenodd" clip-rule="evenodd" d="M19.123 61.1996C18.509 59.6008 17.8813 58.002 17.2536 56.4171C20.6513 55.291 24.5675 54.4429 30.2848 54.429C36.0022 54.4429 39.9183 55.291 43.316 56.4171C42.6883 58.002 42.0606 59.6008 41.4466 61.1996C34.5421 58.9335 26.7507 58.7944 19.123 61.1996ZM17.663 58.3218C18.1133 59.4618 18.5636 60.6018 19.0002 61.7418C19.6961 61.9225 20.4193 62.1172 21.1289 62.3257C18.7819 62.9235 16.6259 63.7577 14.4836 64.7031C14.9885 63.5631 15.4798 62.423 15.971 61.283C14.9067 60.9494 13.856 60.6157 12.778 60.282C14.2926 59.5035 15.8755 58.7666 17.663 58.3218ZM43.0022 58.3218L41.6922 61.7557C40.9963 61.9365 40.2731 62.1311 39.5636 62.3396C41.9105 62.9374 44.0665 63.7716 46.2088 64.717C45.7039 63.577 45.2127 62.4369 44.7215 61.2969C45.7858 60.9633 46.8365 60.6296 47.9144 60.2959C46.3998 59.5035 44.7897 58.7527 43.0022 58.3218ZM21.4564 61.1301C21.6065 61.5472 21.8248 62.145 21.9749 62.576C19.1094 63.1599 16.4213 64.2304 13.815 65.4955C14.3881 64.2165 14.9203 62.8123 15.4525 61.5611C14.47 61.144 13.1874 60.7825 11.8638 60.435C12.9827 59.6147 14.9476 58.7666 17.5402 57.9881L16.8443 56.2085C21.3063 54.707 25.7819 54.0953 30.3121 54.0953C34.8287 54.0953 39.3179 54.707 43.7799 56.2085L43.1113 58.002C45.7039 58.7805 47.6415 59.6147 48.7604 60.435C47.4505 60.7825 46.1679 61.144 45.1717 61.5611C45.7039 62.8262 46.2497 64.2165 46.8092 65.4955C44.2029 64.2304 41.5148 63.1599 38.6493 62.576C38.7994 62.145 39.0041 61.5333 39.1542 61.1301C34.7195 59.5313 26.0002 59.5313 21.4564 61.1301Z" fill="#3A3E68"/>
<path fill-rule="evenodd" clip-rule="evenodd" d="M24.3488 58.711L24.1714 58.9891L24.5535 59.1281L24.7172 58.8501L24.3488 58.711ZM21.5788 56.2364C21.5106 56.3059 21.3468 56.5422 21.456 56.6951C21.5652 56.8342 21.7562 56.8203 21.8244 56.6673C21.8381 56.6256 21.8381 56.5978 21.8244 56.5561C21.7152 56.6534 21.6197 56.6673 21.5379 56.57C21.456 56.4588 21.5515 56.3476 21.5788 56.2364ZM19.341 56.9871C19.2728 57.0566 19.109 57.2929 19.2182 57.4459C19.3273 57.5849 19.5184 57.571 19.5866 57.4181C19.6002 57.3764 19.6002 57.3486 19.5866 57.3069C19.4774 57.4042 19.3819 57.4181 19.3 57.3208C19.2318 57.2234 19.3137 57.0983 19.341 56.9871ZM23.3117 56.57C23.2299 56.6256 23.0252 56.8481 23.1071 57.0149C23.1889 57.1678 23.3936 57.1678 23.4755 57.0149C23.4891 56.9732 23.5028 56.9454 23.4891 56.9037C23.3663 56.9871 23.2572 56.9871 23.2026 56.8898C23.1616 56.7786 23.2708 56.6673 23.3117 56.57ZM22.1792 57.5988C22.0973 57.6544 21.8926 57.8769 21.9745 58.0437C22.0564 58.1966 22.2611 58.1966 22.3429 58.0437C22.3566 58.002 22.3702 57.9742 22.3566 57.9325C22.2338 58.0159 22.0973 58.002 22.07 57.9186C22.0291 57.8074 22.1246 57.71 22.1792 57.5988ZM27.4462 57.7795C27.4053 57.8769 27.3507 58.1827 27.569 58.2939C27.7737 58.3913 28.0057 58.28 27.9784 58.0993C27.9648 58.0576 27.9511 58.0159 27.9102 57.9881C27.842 58.1271 27.7191 58.1966 27.569 58.1271C27.4462 58.0576 27.4872 57.8908 27.4462 57.7795ZM30.4618 58.4191C30.3936 58.5025 30.38 58.5303 30.4482 58.5859C30.4618 58.5581 30.4755 58.5303 30.5028 58.5164C30.5846 58.5025 30.6392 58.5025 30.6802 58.5025C30.5437 58.6137 30.5028 58.6693 30.4891 58.7249C30.4891 58.7388 30.4891 58.7666 30.4891 58.7805C30.5301 59.003 30.8985 59.003 31.0622 58.864C31.1168 58.8083 31.1304 58.7805 31.1577 58.7249C31.1168 58.7388 31.0895 58.7666 31.0486 58.7805C30.9394 58.8223 30.8575 58.8361 30.7757 58.8361C30.7211 58.8361 30.6802 58.8361 30.6392 58.8083C30.5846 58.7805 30.5983 58.7388 30.5983 58.6971C30.6529 58.6137 30.7893 58.5025 30.8848 58.4191C30.8575 58.4052 30.8166 58.3774 30.7893 58.3496C30.6802 58.4052 30.5164 58.4052 30.4618 58.4191ZM28.5106 55.6524C28.4151 55.7359 28.033 56.3059 28.5652 56.3337C28.6743 56.3198 28.7152 56.2642 28.7016 56.2085C28.6607 56.1251 28.5515 56.1668 28.456 56.1529C28.3059 56.1251 28.4151 55.861 28.5106 55.708C28.5106 55.6941 28.5106 55.6802 28.5106 55.6524ZM20.6373 58.4191C20.5008 58.4052 20.3507 58.3635 20.2143 58.3496C20.187 58.4608 20.1733 58.5581 20.146 58.6693C20.2961 58.6971 20.4326 58.711 20.5827 58.7388C20.5963 58.6415 20.6373 58.5581 20.6509 58.4608L21.0739 58.5303L21.1558 58.2105C20.992 58.1827 20.8692 58.1688 20.7055 58.141L20.6373 58.4191ZM23.0661 59.1281L22.6431 59.003C22.5885 59.1142 22.5476 59.2254 22.493 59.3366L22.9433 59.4757C22.9843 59.3784 23.0525 59.2949 23.0798 59.1976C23.2299 59.2393 23.3663 59.2949 23.5164 59.3366L23.6802 59.0169C23.5164 58.9752 23.3936 58.9335 23.2299 58.8779C23.1616 58.9613 23.1071 59.0586 23.0661 59.1281ZM22.6158 57.71C22.5067 57.6127 22.3293 57.2929 22.0837 57.4459C22.0427 57.4181 21.9881 57.3486 21.9472 57.3208C22.1246 57.14 22.3293 57.279 22.4794 57.4181C22.4385 57.293 22.5613 56.9037 22.8615 57.0983C22.8615 57.0983 22.8205 57.14 22.8069 57.2373C22.7386 57.1817 22.6568 57.1956 22.6431 57.2512C22.5613 57.3764 22.6431 57.6683 22.6158 57.71ZM27.4053 57.5293C27.3371 57.4181 27.2689 57.0844 26.9823 57.1678C26.955 57.1261 26.9277 57.0566 26.8868 57.0288C27.1188 56.8898 27.2689 57.0566 27.378 57.2095C27.378 57.0844 27.6236 56.7229 27.8556 56.9732C27.8556 56.9732 27.801 57.001 27.7601 57.0983C27.7055 57.0288 27.6373 57.0288 27.5963 57.0844C27.4599 57.1817 27.4599 57.4876 27.4053 57.5293ZM34.0642 57.4042C34.0096 57.279 33.955 56.9454 33.6548 57.0288C33.6275 56.9871 33.6002 56.9176 33.5729 56.8898C33.8049 56.7508 33.955 56.9315 34.0505 57.0983C34.0915 56.9037 34.3234 56.6395 34.5418 56.8759C34.5418 56.8759 34.4872 56.9037 34.4326 56.9871C34.378 56.9176 34.3098 56.9176 34.2689 56.9593C34.146 57.0705 34.1051 57.3069 34.0642 57.4042ZM25.7815 58.3496C25.6724 58.3357 25.5223 58.3217 25.4131 58.3078C25.3995 58.3913 25.3858 58.4886 25.3722 58.572L25.7542 58.6137L25.7952 58.3913L26.1499 58.433C26.1772 58.3496 26.1636 58.2522 26.1909 58.1688C26.0544 58.1549 25.9453 58.141 25.8088 58.1271C25.7952 58.1966 25.7952 58.28 25.7815 58.3496ZM24.5535 55.8749C24.417 55.8749 24.1577 56.139 24.4306 56.1946C24.5534 56.1807 24.7445 56.1807 24.9082 56.2085C24.7445 56.4449 24.4306 56.5144 24.1987 56.6256C24.9492 56.5422 25.9998 55.7498 24.5535 55.8749ZM26.5047 55.6385C26.3683 55.6385 26.109 55.9027 26.3819 55.9583C26.5047 55.9444 26.6958 55.9444 26.8595 55.9722C26.6958 56.2085 26.3819 56.2781 26.1499 56.3893C26.9004 56.3059 27.9511 55.5134 26.5047 55.6385ZM29.07 55.6524C28.8517 55.6663 28.7971 56.0139 29.0018 55.9861C29.1246 55.9583 29.3156 55.9444 29.4794 55.9583C29.3566 56.2085 29.0564 56.3059 28.8517 56.4449C29.5749 56.2642 30.4755 55.3883 29.07 55.6524ZM20.3917 56.7229C20.3234 56.709 20.2279 56.6812 20.2416 56.6395C20.2552 56.5978 20.2006 56.5561 20.187 56.5144C20.2143 56.4866 20.2689 56.5005 20.3098 56.5005C20.5145 56.5422 20.7191 56.6117 20.8965 56.7786C20.8965 56.8203 20.8556 56.8759 20.801 56.9315C20.6919 56.9176 20.6782 56.9176 20.569 56.9315C20.4599 57.3625 19.9823 57.71 19.764 57.7517C20.1597 57.432 20.4872 57.001 20.3917 56.9315C20.2279 56.9315 20.2006 56.7647 20.3917 56.7229ZM23.5301 56C23.5164 56.0834 23.5028 56.1807 23.4891 56.2503C22.6158 56.6673 21.8108 57.1539 21.0466 57.6961C21.033 57.5988 21.033 57.5154 21.0193 57.4181C21.7971 56.9315 22.6431 56.4449 23.5301 56ZM25.3858 56.9454C25.3585 57.0844 25.3312 57.2234 25.3039 57.3625C25.454 57.4459 25.5905 57.5015 25.6724 57.6822C25.3995 57.8908 25.1266 57.8352 24.9628 57.71C24.6899 57.4459 24.4852 57.0844 24.2669 56.7368C24.2123 56.8759 24.1577 57.001 24.1032 57.14C24.3351 57.3764 24.4716 57.5432 24.5671 57.7795C24.5125 57.9603 24.4034 58.1271 24.0349 58.1966C23.803 58.1966 23.6938 58.0437 23.5573 57.8908C23.4209 58.0437 23.3527 58.1827 22.9433 58.3913C22.6704 58.5025 22.4112 58.4608 22.1519 58.4052C21.9609 58.3078 21.8653 58.2244 21.7698 58.141C21.6743 58.0715 21.5924 58.0854 21.5106 58.1132C21.3878 58.1549 21.2922 58.3496 21.224 58.6415C21.1558 58.864 21.1967 59.2671 21.1012 59.434C20.7737 59.7676 20.378 59.142 20.3507 59.0169C20.3644 59.1281 20.378 59.2254 20.4053 59.3366C20.4735 59.4479 20.5418 59.573 20.6919 59.6842C20.801 59.7537 20.9238 59.8232 21.0876 59.8232C21.265 59.8232 21.3878 59.712 21.4151 59.6008C21.4833 59.2949 21.3468 58.6832 21.5652 58.4608C21.6061 58.433 21.647 58.4191 21.688 58.433C21.9063 58.6832 22.0837 58.8779 22.5613 58.864C22.8478 58.8362 23.0798 58.7388 23.2708 58.6137C23.4209 58.5164 23.5301 58.4052 23.5983 58.2522C23.8303 58.433 24.1714 58.6693 24.4716 58.4469C24.7036 58.2383 24.7172 58.0576 24.7445 57.8769C24.8127 57.9603 24.9219 58.0854 25.0993 58.1688C25.3176 58.2383 25.4813 58.2105 25.6314 58.1132C25.9316 57.9186 25.9316 57.7378 25.8907 57.4876C25.7406 57.2652 25.5905 57.0983 25.3858 56.9454ZM29.8069 56.2781L28.7971 56.8342L28.8381 57.0149L29.8751 56.4449L29.8069 56.2781ZM30.0115 55.7776C30.0798 55.6663 30.1616 55.5551 30.2299 55.4578C30.2708 55.6663 30.3254 55.8471 30.4618 56.0278C30.4209 56.0278 30.38 56.0417 30.339 56.0417C30.4073 56.3476 30.4345 56.6812 30.5846 56.9176C30.7347 57.0149 30.8985 57.0844 31.0486 57.1539C30.9804 57.1956 30.9121 57.3069 30.8303 57.432C30.3117 57.0983 29.9297 57.3208 29.4384 57.6822C30.2026 57.6822 30.8848 57.71 31.4852 57.7656C31.3624 57.8769 31.2533 58.002 31.1577 58.1132C30.5028 57.9742 30.2299 58.2939 29.7659 58.5581C29.4794 58.7388 29.2338 58.8083 29.0291 58.8083C28.7835 58.8222 28.5788 58.6832 28.456 58.5442C28.3195 58.9335 27.9375 59.1142 27.5963 59.142C27.0505 59.1003 27.0642 58.6554 26.8731 58.2383C26.764 58.4052 26.5729 58.6276 26.1227 58.9057C25.877 59.0447 25.6451 59.142 25.4267 59.1698C24.7581 59.1837 24.84 58.5998 24.8946 58.2661C24.9355 58.4608 24.9492 58.6693 25.031 58.7805C25.1402 58.9474 25.3039 58.9057 25.454 58.8918C25.9726 58.7666 26.5047 58.3079 26.764 57.9881C26.6821 57.5988 26.4365 57.2373 26.2318 56.8898C26.2728 56.7647 26.3273 56.6256 26.3683 56.5005C26.5457 56.7785 26.7367 57.0566 26.8595 57.3764C26.996 57.7517 27.1188 58.1271 27.2961 58.4886C27.4462 58.6971 27.7055 58.6971 27.9648 58.5998C28.1967 58.4886 28.3059 58.2939 28.2922 58.2105C28.1149 57.5849 27.9511 56.6534 27.7737 55.7776C27.801 55.7359 27.8965 55.6385 27.9648 55.569C28.1149 56.4588 28.3468 57.9603 28.7153 58.3357C29.1246 58.6276 29.9297 58.1549 30.2708 58.0159C29.9024 57.9742 29.534 57.9742 29.1655 57.9881C29.0837 57.8352 29.1655 57.6961 29.2474 57.5849C29.5067 57.3764 29.9843 57.0149 30.3936 57.0149C30.2026 56.709 30.2844 56.3893 30.0115 55.7776ZM36.5613 57.4876C36.4521 57.4876 36.3975 57.571 36.3702 57.6544C36.4111 57.7378 36.5612 57.7378 36.725 57.71C36.7386 57.6127 36.6704 57.5154 36.5613 57.4876ZM31.1987 55.9583C31.2669 55.8471 31.3351 55.7359 31.4034 55.6246C31.4989 55.8749 31.6217 56.1251 31.7991 56.3893C31.7445 56.3893 31.6899 56.3754 31.608 56.3337C31.7445 56.7786 32.1675 57.8491 31.7581 58.3774C31.6899 57.571 31.5398 56.7646 31.1987 55.9583ZM32.8634 56.0834C32.7952 56.1112 32.686 56.0834 32.6587 56C32.6314 55.9027 32.6724 55.8332 32.7815 55.8193C33.0135 55.7776 33.0817 55.9027 33.0817 56C32.9862 56.3337 32.2903 56.5978 32.031 56.6673C32.3585 56.5005 32.7269 56.3059 32.8634 56.0834ZM32.9862 57.8769C32.8634 57.8352 32.7542 57.7795 32.6314 57.7517C32.5768 57.8491 32.5223 57.9325 32.4677 58.0298C32.6041 58.0854 32.7133 58.1132 32.8361 58.1688C32.877 58.0854 32.9453 58.0298 32.9862 57.9325C33.109 57.9742 33.2318 58.0298 33.341 58.0715C33.4092 57.9881 33.4501 57.8908 33.5184 57.8073C33.3819 57.7517 33.2728 57.71 33.1363 57.6683C33.0954 57.7378 33.0408 57.8074 32.9862 57.8769ZM32.8634 56.6256C32.8497 56.709 32.8497 56.7646 32.8361 56.862C33.4638 56.6256 34.0505 56.3893 34.6782 56.139C34.6782 56.0695 34.6919 55.9861 34.6919 55.9027C34.0642 56.1529 33.4911 56.4032 32.8634 56.6256ZM35.5242 56.6534C35.4696 56.5978 35.3605 56.57 35.2786 56.5561C35.3468 57.5154 35.4287 58.2522 35.3195 58.4469C35.2786 58.6554 34.992 58.8083 34.5418 58.9335C34.0096 59.0447 33.2318 58.9752 33.109 58.4469C32.9726 58.4191 32.9316 58.7944 32.7952 58.9891C32.6178 59.2393 32.3995 59.3227 32.1675 59.2254C31.7172 59.003 31.9764 58.4747 32.2766 58.0993C32.1538 58.3774 32.0583 58.6276 32.2084 58.8501C32.2767 58.9196 32.3722 58.9335 32.4404 58.8918C32.6451 58.7666 32.5905 58.5164 32.8907 58.2661C32.9998 58.1966 33.1363 58.2105 33.2864 58.2522C33.5866 58.6693 33.7913 58.7805 34.5145 58.6554C34.8965 58.5581 35.0603 58.4052 35.0876 58.2383C35.1285 57.7795 35.0466 56.9315 34.9238 56.2085C35.0193 56.1251 35.1012 56.0139 35.1967 55.8749C35.2786 56.1668 35.3878 56.4449 35.5242 56.6534ZM36.4112 57.2234C36.5067 57.1539 36.6158 57.1539 36.7113 57.1956C36.916 57.3625 37.0798 57.5154 37.148 57.6822C37.2162 57.8074 37.2435 57.9881 37.2026 58.1688C37.0934 58.572 36.2883 59.0308 35.3468 59.2671C34.8283 59.3645 34.4462 59.3784 34.1051 59.3088C35.4287 59.0586 36.6704 58.572 36.9297 58.1271C36.9433 58.0854 36.9024 58.0437 36.8069 58.0159C36.6295 58.0298 36.4657 58.0298 36.3156 58.002C36.0973 57.9464 36.07 57.8491 36.0564 57.7795C36.0291 57.6405 36.1928 57.4459 36.4112 57.2234ZM36.2747 56.139C36.1382 56.139 35.879 56.4032 36.1519 56.4588C36.2747 56.4449 36.4657 56.4449 36.6295 56.4727C36.4657 56.709 36.1519 56.7786 35.9199 56.8898C36.6704 56.8203 37.7211 56.0278 36.2747 56.139ZM37.3527 56.8342L37.3117 57.0288L38.5535 56.6812L38.5944 56.4866L37.3527 56.8342ZM38.7172 57.6822C38.649 57.571 38.5944 57.2234 38.2942 57.3208C38.2669 57.2791 38.2396 57.2095 38.2123 57.1817C38.4443 57.0427 38.5944 57.2234 38.6899 57.3764C38.6899 57.2512 38.9628 56.9037 39.1811 57.1539C39.1811 57.1539 39.1266 57.1817 39.072 57.2651C39.0174 57.1956 38.9492 57.1956 38.9082 57.2512C38.7854 57.3347 38.7581 57.6405 38.7172 57.6822ZM39.1129 58.002C38.4989 58.5998 38.9492 58.7805 39.1402 58.6276C39.2357 58.5303 39.1811 58.4052 39.0993 58.3913C39.1265 58.4469 39.1402 58.4886 39.0447 58.5025C38.7718 58.4886 39.031 58.2383 39.1129 58.002ZM39.5632 57.1539C39.6724 57.0149 39.7952 56.8759 39.9043 56.7368C39.9043 57.0288 39.9316 57.293 40.0271 57.4876C39.9725 57.4181 39.918 57.3903 39.8634 57.3903C39.8361 58.1271 39.8088 58.9752 39.7406 59.2254C39.6587 59.6981 39.072 59.851 38.6626 59.6981C38.2942 59.5452 38.2396 59.2115 38.226 58.864C37.9121 59.142 37.2299 59.6008 36.5885 59.5591C36.4521 59.5452 36.3156 59.4896 36.2474 59.3645C36.1928 59.2393 36.2338 59.1281 36.2747 59.0169C36.302 59.1142 36.3429 59.1976 36.4521 59.2532C36.5885 59.3088 36.7523 59.3227 36.9433 59.2671C37.3254 59.142 37.9258 58.8918 38.1032 58.6832C38.1577 58.4747 37.9121 57.8491 37.7211 57.4876C37.803 57.3903 37.8712 57.2929 37.9531 57.1956C38.1441 57.6822 38.3078 58.1827 38.4579 58.6693C38.5262 59.0169 38.5807 59.6286 39.2903 59.434C39.4813 59.3923 39.5086 59.1142 39.5359 58.9474C39.5632 58.3357 39.5768 57.7378 39.5632 57.1539ZM40.2727 59.865C40.4638 59.2115 40.6139 58.4886 40.6412 57.3903C40.7367 57.2652 40.8459 57.1539 40.9414 57.0288C40.9823 57.3625 41.0505 57.71 41.187 57.9325C41.0778 57.863 40.996 57.8074 40.9004 57.863C40.8731 58.141 40.9004 59.4062 40.2727 59.865Z" fill="#3A3E68"/>
<mask id="mask1_489_6779" style="mask-type:luminance" maskUnits="userSpaceOnUse" x="24" y="31" width="16" height="16">
<path d="M24.6082 39.15L29.9025 40.8878L30.5302 46.7408L33.7914 42.1252L39.536 43.4459L36.1247 38.8719L32.6998 38.6912L33.7914 42.1391L39.536 43.4598L32.6998 38.6912L39.1403 33.867L33.7232 35.5492L32.6998 38.6912L30.0117 40.86L30.5302 46.7547L32.6861 38.7051L24.6082 39.15ZM29.8479 31.1281L29.9707 36.8421L32.6725 38.6912L29.8479 31.1281Z" fill="white"/>
</mask>
<g mask="url(#mask1_489_6779)">
<path d="M39.536 31.1281H24.6082V46.7408H39.536V31.1281Z" fill="url(#paint1_linear_489_6779)"/>
</g>
<path fill-rule="evenodd" clip-rule="evenodd" d="M33.7095 35.5492L29.8479 31.1281L32.6861 38.6912L33.7095 35.5492Z" fill="#FBE86A"/>
<path fill-rule="evenodd" clip-rule="evenodd" d="M36.1112 38.8719L39.1268 33.8669L32.6863 38.6912L36.1112 38.8719Z" fill="#FBE86A"/>
<path fill-rule="evenodd" clip-rule="evenodd" d="M33.7915 42.139L39.5225 43.4598L32.6863 38.6911L33.7915 42.139Z" fill="#FBE86A"/>
<path fill-rule="evenodd" clip-rule="evenodd" d="M29.9978 40.86L30.53 46.7408L32.6859 38.6911L29.9978 40.86Z" fill="#FBE86A"/>
<path fill-rule="evenodd" clip-rule="evenodd" d="M29.9844 36.8421L24.6082 39.15L32.6861 38.6912L29.9844 36.8421Z" fill="#FBE86A"/>
<path fill-rule="evenodd" clip-rule="evenodd" d="M21.5245 47.0745C24.581 51.3843 30.2438 52.9831 35.006 50.6753C38.4719 49.0487 40.8734 45.6564 41.2009 41.7637C41.2555 41.2632 41.2555 39.9146 41.0099 39.0248C40.9962 39.1778 40.9826 39.567 40.9553 39.7478C40.8325 41.1797 40.3958 42.1529 39.7409 43.3764L36.3841 38.8719L39.6181 33.4777L33.7915 35.2989L30.0255 30.9891C31.8539 30.4052 32.891 30.3913 34.5147 30.6554C30.4075 28.6395 25.891 29.6266 22.698 32.8798C21.3335 34.3396 20.3646 35.9801 19.8871 37.9543C19.0956 41.0963 19.6687 44.4052 21.5245 47.0745ZM41.0372 41.0407C41.0917 41.8471 40.8052 43.2234 40.4777 44.2105C39.3588 47.5889 36.657 50.0914 33.3413 51.1063C31.2262 51.7458 28.5381 51.6346 26.4914 50.7587C24.199 49.7299 23.3939 48.9513 21.9339 47.2552C19.7916 44.4191 19.1502 40.5402 20.3646 37.0785C21.5927 33.9504 23.7487 31.6425 26.7506 30.5442C28.7565 29.863 30.2711 29.6822 32.3179 30.0576C30.7896 29.9464 29.234 30.1688 27.5284 30.9613C26.505 31.4201 25.3997 32.2542 24.622 33.0884C23.5031 34.3674 22.7526 35.5492 22.2886 37.2453C21.6336 39.6226 21.9475 42.3059 23.0937 44.4608C23.3939 45.0308 23.8169 45.7259 24.2262 46.2125C24.6493 46.7269 25.004 47.0606 25.468 47.4777C26.0274 47.9642 26.6824 48.3674 27.4329 48.7289C28.852 49.3962 30.5576 49.6326 32.3179 49.3962C36.7116 48.854 40.1366 45.4201 41.0372 41.0407ZM33.4231 47.4916C34.6648 47.3942 35.9748 46.9772 37.0118 46.3376C37.6258 45.9623 38.5537 45.2532 39.045 44.6415C39.7136 43.8908 40.0001 43.2651 40.5459 42.1529C40.3549 42.862 40.1229 43.3903 39.7818 44.0298C38.9221 45.6564 37.4894 47.0328 35.9338 47.9503C33.7233 49.1321 31.2672 49.6604 28.811 48.993C26.8461 48.4647 25.427 47.3942 24.1444 45.7676C23.7623 45.2532 23.4758 44.7944 23.1892 44.2105C22.9709 43.7239 22.7662 43.2651 22.6161 42.7646C22.1522 41.2493 22.0157 39.6365 22.3159 38.0794C22.8754 35.1321 24.8676 32.5045 27.5284 31.2254C29.0157 30.5025 31.0352 30.0854 32.7136 30.3218C31.2945 30.3774 29.5888 30.7666 28.3062 31.5869C28.0606 31.7537 27.8149 31.9067 27.5966 32.0874C27.0508 32.5045 26.4914 33.0328 26.082 33.575C25.6317 34.145 25.2633 34.7567 24.9494 35.4657C22.3569 41.4717 27.1463 48.0199 33.4231 47.4916ZM29.8481 31.1281L33.7097 35.5492L39.1268 33.8669C39.0995 33.9225 36.3705 38.4548 36.1112 38.8858L39.5225 43.4598L33.7779 42.139L30.5167 46.7547L29.9982 40.86L24.6083 39.15L29.9845 36.8421L29.8481 31.1281ZM24.5128 38.9414C24.4992 37.9682 24.6765 36.9672 24.9631 36.1331C25.0995 35.7438 25.2769 35.3406 25.4543 34.9931C25.659 34.6177 25.85 34.3118 26.0684 33.9921C26.3003 33.6584 26.5596 33.3803 26.8052 33.1023C27.2828 32.574 27.9514 32.0457 28.5927 31.6564C28.7155 31.573 29.3432 31.1976 29.657 31.1142L29.7799 36.6753L24.5128 38.9414ZM24.4719 39.3446L29.7935 41.0268L30.312 46.9354C27.0372 45.8371 24.581 42.5839 24.4719 39.3446ZM39.5362 43.6961C38.7857 44.9335 37.3257 46.0457 36.0157 46.6296C34.5147 47.283 32.6863 47.575 30.6122 47.0189L33.8734 42.3893L39.5362 43.6961Z" fill="#9D5918"/>
<path fill-rule="evenodd" clip-rule="evenodd" d="M41.0372 41.0407C41.0918 41.8471 40.8053 43.2234 40.4778 44.2105C39.3589 47.5889 36.6571 50.0914 33.3413 51.1063C31.2263 51.7458 28.5382 51.6346 26.4914 50.7587C24.199 49.7299 23.394 48.9514 21.9339 47.2552C19.7916 44.4191 19.1503 40.5402 20.3647 37.0785C21.5928 33.9504 23.7487 31.6425 26.7507 30.5442C28.7565 29.863 30.2711 29.6822 32.3179 30.0576C30.7897 29.9464 29.2341 30.1688 27.5285 30.9613C26.5051 31.4201 25.3998 32.2542 24.622 33.0884C23.5031 34.3674 22.7526 35.5492 22.2887 37.2453C21.6337 39.6227 21.9476 42.3059 23.0938 44.4608C23.394 45.0308 23.817 45.7259 24.2263 46.2125C24.6493 46.7269 25.0041 47.0606 25.468 47.4777C26.0275 47.9643 26.6825 48.3674 27.4329 48.7289C28.852 49.3962 30.5577 49.6326 32.3179 49.3962C36.7117 48.854 40.1366 45.4201 41.0372 41.0407Z" fill="#E9C828"/>
<mask id="mask2_489_6779" style="mask-type:luminance" maskUnits="userSpaceOnUse" x="22" y="30" width="19" height="20">
<path d="M33.4235 47.4916C34.6652 47.3943 35.9751 46.9772 37.0122 46.3377C37.6262 45.9623 38.5541 45.2532 39.0453 44.6415C39.7139 43.8908 40.0005 43.2652 40.5463 42.1529C40.3553 42.862 40.1233 43.3903 39.7821 44.0298C38.9225 45.6564 37.4898 47.0328 35.9342 47.9504C33.7237 49.1321 31.2675 49.6604 28.8114 48.9931C26.8465 48.4648 25.4274 47.3943 24.1447 45.7677C23.7627 45.2533 23.4761 44.7945 23.1896 44.2105C22.9712 43.724 22.7666 43.2652 22.6165 42.7647C22.1525 41.2493 22.0161 39.6366 22.3163 38.0795C22.8757 35.1321 24.8679 32.5045 27.5287 31.2255C29.0161 30.5025 31.0356 30.0854 32.7139 30.3218C31.2948 30.3774 29.5892 30.7667 28.3065 31.5869C28.0609 31.7537 27.8153 31.9067 27.597 32.0874C27.0512 32.5045 26.4917 33.0328 26.0824 33.575C25.6321 34.145 25.2636 34.7567 24.9498 35.4658C22.3572 41.4717 27.1467 48.0199 33.4235 47.4916Z" fill="white"/>
</mask>
<g mask="url(#mask2_489_6779)">
<path d="M40.5458 30.0437H22.0156V49.6465H40.5458V30.0437Z" fill="url(#paint2_linear_489_6779)"/>
</g>
<path fill-rule="evenodd" clip-rule="evenodd" d="M25.1537 0.111219C25.1401 0.264148 25.5358 0.848062 25.5767 1.08441C25.4539 1.08441 24.949 0.444886 24.7716 0.472691C24.7989 0.597815 25.0582 0.875867 25.1128 0.987089C25.181 1.09831 25.6995 1.52929 25.6176 1.50149C25.5358 1.47368 24.8808 1.12611 24.758 1.15392C24.7989 1.19563 25.8223 1.94637 25.8633 2.0576C25.8087 2.0854 24.9627 1.66832 24.7716 1.71003C24.7716 1.89076 25.6995 2.26613 26.1498 2.64151C26.1225 2.75273 25.4403 2.43297 24.949 2.32174C25.0309 2.78053 26.2317 3.22542 26.4636 3.39225C26.259 3.50347 25.4402 3.15591 25.2629 3.04468C25.3993 3.61469 26.3408 4.00397 26.6001 4.05958C26.4773 4.35153 25.7132 3.97616 25.4266 3.93445C25.4539 4.30983 26.45 4.6991 26.7093 4.6852C26.4227 4.90764 26.1635 4.76862 25.6449 4.86594C25.7677 5.07448 26.5319 5.22741 26.9958 5.28302C26.8321 5.36643 26.2999 5.46375 25.8633 5.50546C26.0816 5.82522 27.2141 5.78351 27.5143 6.15889C27.0367 6.10328 26.4091 6.01986 26.1089 6.11717C26.259 6.36742 27.105 6.2562 27.7327 7.07646C27.1596 6.7289 26.7365 6.61767 26.4909 6.70109C27.0777 7.285 27.6371 7.7716 27.8282 8.11916C27.4052 7.91062 26.7502 7.60476 26.45 7.18768C26.4227 7.31281 26.7229 8.3277 27.0777 9.00893C26.3954 8.8143 26.1089 7.24329 26.1089 6.96524C25.7268 7.57696 25.9861 8.3277 25.8905 8.63356C25.6859 8.45283 25.5631 6.90963 25.2902 6.61767C25.3311 7.15988 25.1946 7.74379 25.0582 8.09136C25.0445 8.09136 24.9354 7.00695 24.4578 6.42303C24.4305 6.46474 24.567 7.3128 24.3077 7.41012C24.2941 7.07646 24.1712 6.18669 23.6118 5.74181C23.6527 6.08937 23.6527 6.60377 23.5299 6.89573C23.3525 6.50645 23.2297 5.7418 22.6703 5.44985C22.7794 5.86693 22.7931 6.11718 22.7658 6.67328C22.2336 6.20059 22.3974 5.86693 21.756 5.39424C21.7015 5.40814 21.9334 6.64548 21.8516 6.60377C21.6332 6.47865 21.4831 5.50546 21.0056 5.36643C21.0328 5.56107 21.0874 6.11718 20.9783 6.29791C20.7736 6.13108 20.487 5.44985 20.105 5.36643C20.1868 5.7001 20.3096 5.79741 20.3642 6.14498C20.1186 5.90863 19.8594 5.44985 19.4227 5.31082C19.5864 5.7279 19.7093 5.7418 19.682 6.17279C19.4227 5.89473 19.1089 5.49156 18.6586 5.47765C18.8087 5.57497 18.8769 5.85302 18.9451 6.14498C18.6176 5.83912 18.2492 5.714 17.9763 5.7279C18.181 5.86693 18.3174 6.01986 18.3993 6.17279C17.9354 6.29791 17.5533 6.43694 17.526 6.50645C17.8944 6.49255 18.2083 6.49255 18.3038 6.50645C18.2219 6.61767 18.0309 6.72889 18.0173 6.99304C18.2492 6.82621 18.9315 6.52035 19.0679 6.58987C18.9724 6.72889 18.5904 6.89573 18.5767 7.14597C18.9861 6.93743 19.259 6.86792 19.8594 6.86792C19.4091 6.99304 19.1498 7.18768 19.0816 7.43793C19.7365 7.34061 20.7326 7.09036 20.91 7.18768C20.4188 7.38232 19.9412 7.54915 19.9412 7.71598C20.5416 7.61867 21.1557 7.47964 21.5787 7.60476C20.8418 7.96623 20.8009 8.10526 20.7463 8.24429C21.565 8.02184 22.029 7.81331 22.5202 8.04965C22.3291 8.10526 21.6469 8.41112 21.5241 8.63356C22.1108 8.57795 22.9159 8.42502 23.0387 8.42502C23.1615 8.42502 23.2843 8.43892 23.1751 8.56405C23.066 8.68917 22.4929 9.00893 22.6976 9.02283C22.9295 9.03674 23.5845 8.92552 23.7482 8.92552C23.8165 8.91161 24.1167 8.95332 23.9666 9.00893C23.8165 9.07845 23.3525 9.23137 23.3252 9.46772C23.4208 9.49552 24.335 9.18967 25.0582 9.42601C24.9217 9.46772 24.3759 9.56504 24.1712 9.84309C24.4987 9.84309 25.7132 9.81529 25.8633 10.2046C25.6859 10.2463 25.3447 10.2185 25.0036 10.2741C25.3038 10.5382 25.8496 10.7607 25.9588 11.4002C25.2219 10.997 24.9217 10.3575 24.7171 10.3992C24.949 10.9414 24.8535 11.8173 24.8399 11.7756C24.7034 11.0943 24.2531 10.3297 23.5026 10.149C23.721 10.3853 24.0757 11.1499 24.0894 11.6922C23.3252 10.8302 23.2024 10.0516 22.3974 10.0933C22.9432 10.7051 23.066 11.1917 23.1206 11.4975C23.0796 11.4558 22.0562 10.0238 21.7424 10.1629C21.9198 10.6216 22.2063 10.9831 22.1518 11.5253C21.8379 10.9136 21.6742 10.4826 20.9783 10.2185C21.2512 10.6634 21.4013 11.0943 21.3467 11.5809C21.0328 11.289 20.5007 10.3575 20.0913 10.3853C20.1868 10.7607 20.719 11.3029 20.5826 11.72C20.3779 11.4697 19.9139 10.6077 19.4773 10.566C19.6137 11.0109 19.9822 11.3446 20.0367 11.7895C19.8321 11.7895 19.3681 10.9692 18.604 10.9275C18.8769 11.289 19.0816 11.5114 19.2044 11.8868C18.5494 11.4836 18.1401 11.2751 17.6215 11.3724C17.949 11.6365 18.2219 11.7061 18.5767 12.2622C18.0991 12.0397 17.6352 11.6226 16.9666 11.7895C17.2122 11.9702 17.758 12.29 17.8535 12.5124C17.144 12.29 16.6664 12.0675 16.2161 12.2761C16.4344 12.3595 16.7892 12.5263 17.0075 12.7766C16.6118 12.6653 16.4071 12.5263 15.7249 12.9295C16.2297 12.9156 16.5436 12.999 16.5981 13.1102C16.3525 13.1658 15.9295 13.3605 15.8204 13.7358C16.1479 13.5134 16.3116 13.43 16.5845 13.4161C16.5026 13.5412 16.2297 13.6663 16.1751 14.139C16.5163 13.7219 16.7482 13.5412 17.144 13.3188C16.9666 13.6107 16.8301 13.8193 16.9256 14.1668C17.2258 13.708 17.4169 13.3744 17.6625 13.2632C17.6352 13.43 17.3896 13.7358 17.4442 14.1668C17.6079 14.0556 17.9627 13.4161 18.3447 13.2214C18.1674 13.5829 17.9763 13.7636 18.0582 14.2641C18.6586 13.5551 18.604 13.5273 18.9997 13.0963C18.9451 13.43 18.9178 13.5829 18.9588 14.1251C19.2044 13.7776 19.5592 13.2353 19.9822 13.0129C19.8457 13.3188 19.6274 13.6941 19.6274 14.0139C19.9276 13.6524 20.105 13.4161 20.719 12.9851C20.7054 13.2353 20.5007 13.43 20.4597 14C20.9373 13.569 21.4695 12.86 21.4695 12.86C21.3603 13.2353 21.2648 13.5412 21.2102 14C21.5787 13.6941 21.8379 13.3188 22.3291 12.8461C22.1245 13.4161 22.1381 13.5273 22.22 13.9583C22.5748 13.5829 22.7249 12.9712 23.3252 12.8044C23.0523 13.2075 22.9159 13.5829 22.9978 14C23.1342 13.7915 23.7346 12.8461 24.2395 12.86C23.871 13.3327 23.68 13.5412 23.7482 14.0139C24.0211 13.5551 24.7444 12.7905 25.0582 12.8878C24.7716 13.2353 24.5533 13.4717 24.4578 13.9861C24.8399 13.7775 25.0309 13.4022 25.9042 13.2492C25.7404 13.5134 25.7268 13.6246 25.0172 14.1112C25.5221 14.1251 25.6313 14.1668 26.0952 14.3337C25.8087 14.5978 24.7853 14.3198 23.8438 14.7368C24.4442 14.9732 24.7716 14.8063 25.0991 15.2651C24.6352 15.3068 23.6118 15.0149 23.0523 15.3486C23.1751 15.5154 23.448 15.5432 24.0894 15.9325C23.7346 16.1271 22.8749 15.571 21.8106 16.141C22.7521 16.3356 23.1479 16.572 23.2707 16.6832C23.3935 16.7944 21.6469 16.3913 20.9646 16.9196C21.6059 16.9752 22.0972 16.8918 22.4519 17.4201C21.797 17.2393 20.7326 17.0864 20.4461 17.434C20.7599 17.4896 21.4149 17.7954 21.4831 18.0179C21.3603 18.0457 20.6917 17.6842 19.7366 17.9901C20.105 18.1847 20.487 18.0596 20.8691 18.6991C20.1868 18.5184 19.682 18.282 19.1225 18.6852C19.5182 18.6852 19.8457 18.8659 20.2414 19.2691C19.7229 19.1579 19.1907 18.9354 18.6586 19.3386C19.0406 19.4637 19.3681 19.4776 19.5455 19.7696C19.1634 19.7557 18.3993 19.6584 18.2356 20.1867C18.836 20.1033 19.0679 20.0616 19.5455 20.2145C18.8769 20.2562 18.4539 20.2006 17.9354 20.6177C18.7677 20.6733 19.0816 20.6177 19.259 20.7845C18.6449 20.7567 18.1128 20.9096 17.7171 21.4379C18.1946 21.2433 18.4539 21.2155 18.8496 21.2294C18.1264 21.6187 17.7853 21.8133 17.6079 22.3555C17.9354 22.1887 18.1946 21.9662 18.6859 21.9245C18.2629 22.1331 17.7443 22.425 17.8126 23.1062C18.0173 22.7309 18.4539 22.3416 18.7132 22.286C18.6313 22.4528 18.1128 23.0367 18.1537 23.4399C18.3311 23.0228 18.6176 22.9394 18.8496 22.6336C18.9588 22.7726 18.8087 23.2453 18.8223 23.4399C19.1634 23.148 19.259 22.7031 19.3272 22.0775C19.5319 22.3694 19.5046 22.7865 19.6274 23.0228C19.7911 22.7309 19.7093 21.9662 19.8321 21.3823C19.8866 21.7021 20.0777 22.1331 20.2687 22.3694C20.3097 21.5631 20.2551 20.9374 20.3642 20.7567C20.4597 21.2294 20.4461 21.5352 20.7872 21.9523C20.7872 21.6465 20.951 19.8808 20.9646 20.2979C20.9783 20.7289 21.142 21.2989 21.4968 21.4101C21.4286 20.6177 21.565 20.6594 21.6196 19.6306C21.8925 20.2145 21.8925 20.6455 22.0017 20.8679C22.0835 20.715 22.2609 20.3535 22.3837 18.8242C22.4656 19.283 22.4792 19.575 22.643 20.284C22.9159 19.7001 22.8477 19.0189 22.9159 18.3098C23.0796 18.8242 23.0796 19.422 23.3389 19.5611C23.3935 19.3108 23.2707 17.851 23.5572 17.7676C23.5981 18.004 23.448 18.3654 23.8028 19.1162C23.8028 18.6157 23.8983 17.4201 24.144 17.3783C24.1303 17.6842 23.9666 18.1569 24.3077 18.6296C24.3077 18.4906 24.4442 17.5591 24.6488 17.3088C24.6352 17.6425 24.7171 18.0596 24.8126 18.1152C24.9217 18.1013 25.2083 17.1281 25.2629 16.7666C25.372 17.003 25.4675 17.2671 25.2083 17.9901C25.604 17.7676 25.8769 16.9752 26.0679 16.7249C26.0816 16.8918 25.9724 17.4201 25.7541 17.8232C25.8496 17.7815 26.2999 17.4061 26.9139 17.2949C26.4364 17.7676 25.7132 18.004 25.5904 18.1986C26.0406 18.1708 26.3954 18.1013 26.641 17.9901C26.0679 18.4071 25.5631 18.4906 25.4675 18.8103C26.0543 18.5601 26.5046 18.5184 26.7093 18.6296C25.9042 18.8798 25.1946 19.1718 24.8944 19.7557C25.3038 19.6445 25.8223 19.3942 26.4227 19.3942C26.3954 19.4637 25.2902 19.714 24.6625 20.576C25.604 20.284 25.9451 19.992 26.3408 20.006C25.0309 20.7706 24.6215 21.1182 24.5397 21.3406C25.372 20.8679 25.7541 20.8818 26.0952 20.8262C25.2629 21.1738 24.7034 21.5074 24.4578 22.0775C25.1537 21.6743 25.7541 21.5491 25.9724 21.6048C25.604 21.7299 25.0445 21.7299 24.4032 22.7031C24.9081 22.4389 25.5904 22.2026 25.8905 22.2721C25.5358 22.5362 24.8262 22.7031 24.335 23.4121C25.0582 23.1062 25.4402 23.0089 25.6586 23.0923C25.0991 23.2731 24.4169 23.718 24.4169 24.0516C24.949 23.7736 25.0855 23.7041 25.7132 23.7041C25.0718 23.9682 24.8535 23.9682 24.567 24.5799C25.0036 24.3297 25.3038 24.2185 25.6995 24.1907C25.3857 24.427 24.8944 24.4548 24.6352 25.2473C24.9763 24.997 25.4266 24.6912 25.6722 24.6633C25.3174 25.0109 24.9763 25.2751 24.949 25.8729C25.1401 25.6643 25.4812 25.2473 25.6449 25.2194C25.5904 25.4558 25.0991 25.7895 25.0036 26.6236C25.2219 26.29 25.3311 26.1509 25.6722 25.9841C25.3038 26.429 25.0582 27.0546 25.0582 27.2075C25.2765 26.9851 25.3857 26.7627 25.7405 26.5541C25.4948 26.9712 25.3857 27.5551 25.6449 27.8471C25.6449 27.7775 25.7541 27.291 25.8223 27.0268C25.9315 27.2075 25.9042 27.3744 26.2726 27.6385C26.218 27.4578 26.0816 27.0268 26.0816 26.6931C26.1907 26.8044 26.3272 27.2492 26.6001 27.291C26.5728 27.1936 26.4227 26.6653 26.3408 26.137C26.5592 26.2622 26.7093 26.429 26.9276 26.86C26.8594 26.1787 26.6274 25.7617 26.5864 25.5253C26.7911 25.6504 27.0367 25.8868 27.3369 26.29C27.3506 25.567 26.5592 24.5938 26.7093 24.719C26.9958 24.9553 27.2005 25.1082 27.5007 25.4697C27.4734 25.0526 27.4734 24.8024 26.9412 23.9543C27.1323 24.1768 27.3779 24.427 27.7054 24.9136C27.7463 24.5382 27.4461 23.8014 27.0913 23.2592C27.4325 23.4399 27.7326 24.1489 27.8145 24.2324C27.7599 23.6763 27.6644 23.2731 27.2278 22.5362C27.6235 22.717 27.7054 23.2036 27.9237 23.3565C27.7463 22.6753 27.8282 22.6753 27.3233 21.8133C27.6781 22.0774 27.6917 22.1887 27.9919 22.3972C27.9373 22.0079 27.7872 21.5074 27.487 20.9235C27.6644 21.0069 27.8418 21.2155 28.0056 21.3962C28.0738 21.0904 27.8009 20.3535 27.5689 19.8808C27.8964 19.9503 28.0738 20.3952 28.1284 20.576C28.2512 20.2701 28.3057 19.9503 28.5923 19.5194C28.6059 20.0199 28.4968 20.1728 28.4013 20.6733C28.6878 20.1867 28.8925 20.0477 29.3837 20.006C28.5241 20.7706 28.2921 21.2433 28.3057 21.4796C28.5787 21.2711 28.8516 21.0904 29.2882 20.9513C28.9334 21.2433 28.333 21.8689 28.2375 22.564C28.6332 22.0635 28.8788 21.994 29.0699 21.9106C28.6469 22.425 28.2375 23.0506 28.3057 23.1897C28.5104 23.0089 28.7015 22.7726 29.1245 22.5223C28.7697 23.0645 28.333 23.5372 28.4149 24.2463C28.6878 23.718 28.9607 23.4677 29.3837 23.3009C29.0153 23.7736 28.5104 24.4131 28.5514 25.3307C28.8788 24.5799 29.4247 24.2602 29.602 24.2046C28.9334 25.289 28.8652 25.6643 28.8106 26.0536C29.1518 25.5948 29.3564 25.2473 29.7521 25.0665C29.7521 25.4002 28.988 26.29 28.9744 26.6792C29.3564 26.4707 29.7521 26.0258 29.9295 25.9007C29.9568 26.2065 29.0699 27.1102 29.0699 27.2492C29.3837 27.1241 29.3428 27.0685 29.9432 26.86C29.7658 27.138 29.5065 27.8193 29.5475 28.0556C29.6566 28.0417 29.9705 27.5968 30.1479 27.1519C30.257 27.6802 30.2707 27.9166 30.8847 28.5978C30.8847 28.3754 30.5026 27.4995 30.5026 27.3466C30.7892 27.6524 30.9393 28.0973 31.1849 28.0556C31.1576 27.9305 30.7892 27.3049 30.7482 26.9434C30.8301 27.0129 31.0894 27.0824 31.3896 27.6107C31.3896 27.1519 31.0484 26.6931 30.8301 26.4985C30.9802 26.4846 31.3213 26.7905 31.6079 26.9434C31.4441 26.5958 30.8983 25.9841 30.7892 25.8451C30.8983 25.8034 31.4578 26.2482 31.6352 26.3734C31.4714 25.8451 31.0075 25.3446 30.8165 25.1499C31.1303 25.2195 31.2258 25.289 31.7443 25.7895C31.7307 25.4836 31.2804 24.8441 30.8301 24.5521C31.1167 24.5104 31.526 24.7468 31.7307 24.9275C31.5942 24.3019 31.103 24.0516 30.7755 23.7597C31.1303 23.8014 31.3759 24.0655 31.5942 24.2463C31.4851 23.6902 31.3486 23.6206 30.7482 23.0367C31.0621 23.0228 31.4032 23.1201 31.8126 23.4538C31.6488 22.8282 31.0621 22.5084 30.7482 22.3555C31.1167 22.2999 31.4714 22.4111 32.0718 22.7309C31.8262 22.2026 31.4987 21.9384 30.8028 21.5491C31.103 21.5769 31.758 21.7577 32.181 22.0913C31.9217 21.3962 31.4714 21.2294 30.9939 21.0626C31.1985 20.9791 31.7853 21.146 32.0991 21.2711C31.9627 20.8401 31.4714 20.6872 31.0075 20.4369C31.3759 20.3674 31.7716 20.4508 32.1946 20.5482C32.0172 19.992 31.1849 19.7418 31.1849 19.6862C31.7171 19.6306 32.1128 19.8669 32.3447 20.0616C32.2629 19.5194 32.0991 18.9354 32.2902 18.7825C32.5494 19.1996 32.5631 19.5333 32.6722 19.9781C32.7677 19.8252 32.7677 19.4637 33.2317 18.9076C33.218 19.3942 33.0406 19.6584 32.9997 20.2423C33.2726 19.7557 33.5728 19.4359 34.0367 19.3247C33.4909 19.8947 33.1498 20.3257 33.1089 20.8957C33.5182 20.6038 34.064 19.9364 34.2278 20.0616C33.8457 20.5343 33.2726 20.9652 33.1498 21.6465C33.4909 21.3128 33.8184 20.9652 34.2005 21.0069C33.9549 21.3545 33.218 21.8828 33.1362 22.6057C33.6001 22.1053 33.9549 21.855 34.2687 21.9106C34.1186 22.1609 33.4363 22.5362 33.2044 23.2731C33.7638 22.7587 34.0367 22.5918 34.3642 22.5501C33.9412 22.8977 33.2999 23.4121 33.2726 24.1211C33.5455 23.8987 33.7638 23.4538 34.4188 23.3843C34.0095 23.6484 33.5319 24.0099 33.3135 24.8441C33.9412 24.2741 34.0367 24.2602 34.4052 24.2046C34.3233 24.4826 33.6956 24.6077 33.5592 25.7199C33.9139 25.2612 34.064 25.0109 34.4461 24.8858C34.2141 25.2334 33.5592 25.72 33.5728 26.5958C33.7638 26.3317 34.1459 25.7617 34.528 25.5114C34.2005 25.9424 33.7093 26.7766 33.8184 27.1658C33.9276 27.1241 34.2141 26.6931 34.6098 26.1648C34.6508 26.4568 34.064 26.9156 34.3233 28.0834C34.4324 28 34.5143 27.3327 34.7463 26.8044C34.8418 27.1797 34.9237 27.7497 35.0874 27.8053C35.1829 27.3605 35.0738 26.6792 34.9237 26.429C35.3603 26.6931 35.3057 26.9434 35.565 27.1797C35.6878 26.9851 35.333 25.998 35.1011 25.7339C35.2785 25.706 35.5514 26.1509 35.7697 26.429C35.8652 26.0397 35.7015 25.1917 35.1966 24.7607C35.5104 24.858 35.7833 25.2334 36.1518 25.6643C36.0972 24.7885 35.5241 24.3714 35.1284 24.0933C35.3603 24.1072 35.988 24.427 35.988 24.427C35.797 23.6484 35.5104 23.5511 35.142 23.2731C35.6469 23.1897 36.0699 23.6902 36.1108 23.7319C36.0972 23.3287 35.6332 22.717 35.1966 22.3694C35.4695 22.3555 35.9334 22.8421 36.2609 23.0923C36.2063 22.3972 35.4422 21.8411 35.3057 21.6882C35.7015 21.6743 35.8925 21.9384 36.2336 22.1192C36.0562 21.5074 35.1829 20.993 35.1829 20.993C35.5104 20.8679 35.9471 21.1182 36.3428 21.4101C36.0972 20.8818 35.6878 20.5204 35.333 20.3396C35.6059 20.2979 36.2746 20.8123 36.4247 20.7706C36.3155 20.4925 35.7424 19.9364 35.3194 19.7418C35.6605 19.6862 36.1108 19.7835 36.3018 19.853C36.2336 19.7001 35.8925 19.3247 35.1011 19.0606C35.3058 19.005 35.6196 19.0745 35.9607 19.1162C35.9607 19.1162 35.1829 18.5323 35.0192 18.1152L34.8827 17.6842C35.5377 18.004 35.7151 18.6435 36.0835 18.8937C35.9334 18.3932 35.8652 17.9484 35.8243 17.434C36.2882 17.8788 36.3291 18.5184 36.4792 19.1023C36.6703 18.5879 36.5338 18.143 36.7248 17.8371C36.9705 18.4767 36.7385 19.3108 37.1069 19.7974C37.1206 19.3247 37.2161 18.8798 37.257 18.6852C37.2979 19.2413 37.2707 19.9642 37.489 20.3813C37.5572 20.1033 37.5981 19.6723 37.7482 19.2413C37.8165 20.2562 37.8301 20.4786 38.0757 21.1599C38.1712 20.9096 38.0894 20.423 38.3213 20.0477C38.3896 20.9235 38.6079 21.424 38.8808 21.9245C38.9081 21.7994 38.7443 21.0347 38.9217 20.6872C38.99 21.1043 39.0036 21.8133 39.3584 22.4389C39.3447 21.7299 39.413 21.4657 39.4402 21.1877C39.5767 21.8967 39.5358 22.2721 39.8496 22.8838C39.9315 22.1748 39.9178 21.9384 40.027 21.577C40.1089 22.3138 40.2862 23.0923 40.4227 23.3009C40.5182 22.6197 40.4227 22.3555 40.5455 22.0496C40.6683 22.6336 40.7775 23.0506 41.1323 23.6624C41.1868 23.1897 41.1595 23.0228 41.2005 22.717C41.2824 23.0367 41.3642 23.4816 41.6508 23.8431C41.5825 23.3287 41.6235 23.148 41.6508 22.995C41.8418 23.287 41.8827 23.718 42.1284 23.9682C42.0874 23.5233 42.0874 23.426 42.0738 23.2175C42.3057 23.3426 42.7287 23.7319 42.7697 23.8014C42.8243 23.3982 42.3876 22.9672 41.951 22.7448C42.3603 22.7309 42.5923 22.856 42.8925 22.9255C42.8106 22.8004 42.2375 22.3972 41.6781 22.2304C42.0601 22.1887 42.2239 22.2443 42.6059 22.4111C42.0465 21.7577 41.4461 21.7299 41.2687 21.563C41.4188 21.4935 41.9373 21.6604 42.2239 21.7299C41.8554 21.2294 41.4325 21.2016 40.9412 21.1043C41.1595 20.993 41.7054 20.993 42.142 21.0208C41.4597 20.4925 41.0367 20.7289 40.6547 20.715C41.0095 20.5343 41.3096 20.4508 41.8145 20.423C41.2278 20.0755 41.0504 20.1867 40.3681 20.3257C40.9003 19.9781 41.0504 19.9503 41.6508 19.8947C41.4461 19.6167 40.641 19.6167 40.0679 19.7835C40.1907 19.575 40.5728 19.4498 41.3506 19.3108C40.5319 18.9772 39.8633 19.2413 39.413 19.1996C39.6313 18.9632 40.3272 18.7825 40.9003 18.7269C39.8087 18.2542 39.6859 18.6435 38.9627 18.6713C39.1264 18.5045 39.6859 18.2681 40.4909 18.2264C39.9588 17.8788 39.3038 17.9066 38.4169 18.0735C38.7307 17.9345 39.0445 17.712 40.0134 17.6425C39.8087 17.5035 39.2629 17.434 37.7482 17.5174C38.0621 17.281 38.5124 17.3505 39.4539 17.0586C38.4441 16.6832 37.3798 17.0864 37.3252 17.0308C37.8165 16.6832 38.4032 16.6137 38.7989 16.4747C38.335 16.0715 37.1615 16.433 36.5611 16.4052C36.8613 16.2522 37.1206 16.1549 37.7755 15.9881C37.489 15.7656 36.8749 15.9464 36.1381 15.9325C36.411 15.8908 36.9295 15.7517 37.3252 15.5293C37.1069 15.432 36.0835 15.5293 35.4286 15.3903C35.9471 15.3068 36.4929 15.2373 36.602 15.1261C36.179 14.9037 35.7833 14.3476 35.7015 14.1946C36.0017 14.292 37.0796 15.1817 37.5299 15.14C36.8886 14.6534 36.834 14.3893 36.7794 14.1251C37.0387 14.4032 37.8301 15.0844 37.9256 15.0288C37.9802 14.9176 37.8028 14.5144 37.5981 14.2502C37.912 14.3476 38.567 15.0566 38.6352 15.1817C38.6488 14.5978 38.2395 14.278 38.0484 14.0278C38.2804 13.9305 39.0445 14.8898 39.3311 15.3207C39.1946 14.4866 38.8671 14.2502 38.758 14.0278C39.0445 13.9305 39.7677 15.2512 39.9588 15.432C40.0952 15.1678 39.7814 14.4727 39.5221 14.1668C40.0133 14.3615 40.6274 15.571 40.7229 15.5571C40.7365 14.7507 40.5319 14.6812 40.3408 14.2502C41.296 15.1539 41.6781 15.6822 41.8418 15.7795C41.9237 15.5849 41.91 15.4737 41.4325 14.6117C42.1011 14.9315 42.1556 15.2512 42.565 15.9603C42.797 15.6683 42.6059 15.0705 42.374 14.709C42.142 14.3476 43.3018 15.7656 43.4656 16.0298C43.5202 15.4876 43.3291 15.2234 43.1381 14.7646C43.3428 14.8481 43.643 15.4181 44.1479 16.0854C44.1751 15.7795 44.0796 15.3068 43.9432 15.001C44.3798 15.4181 44.7482 16.1271 45.0621 16.28C45.0348 16.0159 44.7619 15.6822 44.7619 15.3068C45.1849 15.7934 45.5124 16.1271 45.9627 16.1827C45.8672 16.0298 45.4714 15.6961 45.4714 15.5154C45.8399 15.6405 46.1264 15.5571 46.5085 15.8212C46.3038 15.4459 45.5397 15.2512 45.3896 15.1539C45.6352 15.0566 46.2219 15.14 46.604 15.3486C46.2629 14.7229 45.6761 14.7646 45.1985 14.8203C45.6215 14.5839 45.9763 14.6256 46.3447 14.5839C45.8808 14.2224 45.4851 14.2502 44.6664 14.3198C44.9802 14.0973 45.2122 13.9722 45.7171 13.8749C45.0894 13.6385 44.5572 13.8193 44.066 14.1807C44.1206 13.9444 44.4071 13.8054 45.0757 13.291C44.4071 13.2214 44.0933 13.4995 43.5065 13.8471C43.8067 13.4439 44.0387 13.3466 44.5845 13.0824C44.1615 12.7209 43.5748 13.2353 43.2609 13.4578C43.2336 13.1102 43.5065 12.9156 43.7521 12.5958C43.0835 12.5541 42.7697 13.0407 42.4013 13.43C42.4968 12.86 42.6605 12.5402 42.988 12.3039C42.2785 12.2761 42.0055 12.7627 41.5416 13.3049C41.487 12.5402 41.8827 12.429 42.0738 12.0675C41.1186 12.3317 40.7638 13.0268 40.6547 13.0685C40.5865 12.8461 40.9549 12.2205 41.1868 11.9841C40.7502 11.8451 39.9451 12.5819 39.5085 13.0963C39.4812 12.4429 39.9451 12.2344 40.45 11.8312C39.5903 11.7478 38.3623 13.0824 38.4032 12.9156C38.4442 12.7488 38.6352 12.3317 39.3038 11.6365C38.103 11.7617 37.7073 12.7209 37.2979 12.7488C37.5981 12.0536 37.8028 11.8729 37.8165 11.6643C37.1615 11.6782 36.8067 12.4846 36.3974 12.7209C36.3974 12.1509 36.4383 12.1231 36.7931 11.5809C35.7833 11.7478 35.4831 12.4707 35.1011 12.4012C35.3876 11.998 35.4422 11.9007 35.8652 11.6087C35.0056 11.5948 34.91 11.4975 34.6371 11.3724C35.4422 11.0109 35.6605 11.2751 36.0972 11.2334C35.7287 10.8302 35.1693 10.8163 34.7326 10.6773C34.951 10.4131 35.8379 10.719 36.3428 10.9692C36.1927 10.4826 35.797 10.3436 35.2239 10.149C35.6469 9.857 36.8067 10.6912 36.9295 10.5521C36.9022 10.2185 36.7658 10.0377 36.0972 9.75968C36.8204 9.45382 37.1069 9.8848 37.6118 10.0099C37.5026 9.57895 37.4753 9.48162 36.9705 9.12015C37.6527 9.24528 38.0894 9.42601 38.5669 9.48162C38.2531 9.12016 37.9939 8.91161 37.6937 8.64746C37.6937 8.64746 38.5397 8.95332 39.1946 9.05064C38.8262 8.60575 38.5533 8.53624 38.4032 8.34161C38.9217 8.48063 39.3311 8.70308 39.8905 8.61966C39.6995 8.35551 39.3038 8.14697 39.0172 7.96623C39.4948 7.91062 40.0952 8.17477 40.5046 8.34161C40.2317 7.85501 39.9178 7.72989 39.8769 7.47964C40.45 7.61867 40.4227 7.68818 41.3369 7.93843C41.4052 7.74379 40.5046 7.38232 40.5046 7.20159C40.9412 7.15988 41.5825 7.50744 41.7872 7.50744C41.5962 7.11817 41.2141 6.99305 41.0913 6.85402C41.3506 6.82621 41.5553 7.04866 42.2239 7.21549C42.1011 6.86792 41.91 6.89573 41.5553 6.61767C42.142 6.64548 42.4286 6.7845 42.8243 6.7706C42.8243 6.49255 41.6644 6.43694 42.6332 6.36742C43.6157 6.28401 42.1966 6.18669 41.8827 6.13108C41.8691 6.00596 42.4831 5.89473 42.565 5.64448C41.7599 5.68619 41.6917 5.86693 41.3506 6.07547C41.3915 5.7418 41.5826 5.39424 41.719 5.2135C41.2278 5.29692 40.9685 5.7557 40.4909 6.33962C40.4363 6.10327 40.7092 5.51936 40.8048 5.2274C40.1498 5.46375 39.9997 6.07547 39.7404 6.53426C39.7268 5.86693 39.9042 5.64449 40.027 5.24131C39.5494 5.44985 39.3174 5.86693 39.0036 6.56206C38.8944 6.17278 38.9354 5.86693 38.949 5.40814C38.3486 5.86693 38.4305 6.82621 38.2531 6.93743C38.0348 6.52035 38.1576 6.03376 38.0075 5.57497C37.6664 5.85302 37.7892 6.85402 37.7482 7.18768C37.4071 6.90963 37.5299 6.14498 37.3935 5.78351C37.0387 5.97815 37.1342 7.07646 37.0387 7.50744C36.7249 7.11817 36.602 6.67328 36.5611 6.14498C36.1381 6.7567 36.2336 7.21549 36.3291 7.92453C35.9744 7.49354 36.0153 7.02085 35.8925 6.53426C35.5514 6.58987 35.5241 8.38331 35.5104 8.43892C35.3876 8.13307 35.2102 7.66037 35.3057 6.82621C34.6098 7.22939 34.951 7.98013 34.8145 9.14796C34.5143 8.67527 34.3642 7.82721 34.4188 7.49354C33.9003 8.06355 33.9549 8.96723 34.2414 9.63455C34.2551 9.67626 33.682 8.96722 33.5592 8.38331C33.3681 8.46673 33.4909 9.18967 33.1089 9.94041C32.836 9.32869 33.1498 8.8421 33.259 8.43892C32.9451 8.57795 32.6859 8.8004 32.5085 8.86991C32.413 8.43893 33.4363 7.78549 33.7093 7.60476C33.3818 7.49354 32.8769 7.71598 32.7404 7.75769C33.2044 7.14597 34.1323 6.89573 34.2005 6.82621C34.0367 6.63158 33.5592 6.7567 33.3954 6.79841C33.2317 6.82621 33.4636 6.63158 33.5319 6.60377C33.6547 6.52036 34.2687 6.2423 34.4597 6.10327C34.6235 5.97815 33.9685 6.03376 33.8048 5.97815C33.641 5.93644 33.7365 5.85303 33.8457 5.78351C33.9549 5.714 34.7054 5.39424 35.2239 5.11619C35.0056 5.00496 34.2551 5.11618 34.064 5.17179C34.3369 4.6852 34.8418 4.60178 35.6469 4.33763C35.5241 4.25422 35.4149 4.1569 34.5962 4.25422C34.8691 3.92055 35.4558 3.69811 36.0153 3.43396C35.9198 3.29493 35.4149 3.42006 34.91 3.53128C35.2375 3.26713 35.7424 3.08639 36.4519 2.89175C36.179 2.75273 35.7424 2.79444 35.3876 2.78054C35.756 2.53029 36.2336 2.44687 36.7658 2.43297C36.5747 2.26614 36.22 2.02979 35.7833 2.18272C36.2882 1.83515 36.5611 1.84906 37.025 1.79345C36.8749 1.58491 36.4519 1.66832 36.3018 1.5988C36.3837 1.45978 37.1206 1.34856 37.4071 1.36246C37.257 1.14002 37.0387 1.15392 36.9022 1.11221C36.9705 1.0427 37.2297 0.861963 37.5436 0.681228C37.4753 0.63952 37.0796 0.736841 36.6157 0.88977C36.5884 0.722938 36.6293 0.500497 36.7112 0.278055C36.4656 0.417081 36.2336 0.73684 36.1381 1.18173C36.0289 0.903672 35.9334 0.611717 36.0017 0.444885C35.6469 0.695133 35.6059 1.20953 35.5514 1.61271C35.2785 1.26514 35.374 1.16783 35.2648 0.72294C34.9783 1.08441 34.9373 1.79345 34.8555 2.14101C34.7054 1.82125 34.5553 1.65442 34.4324 1.32076C34.1732 1.61271 34.4461 2.89175 34.3779 3.142C34.1868 3.05859 33.8184 2.26614 33.8048 2.0576C33.4773 2.43297 33.7093 3.142 33.8048 3.58689C33.8184 3.6703 33.3408 3.08639 33.1907 2.50248C32.9315 3.26713 33.0816 3.55908 33.0816 4.1569C32.7404 3.69811 32.6176 3.47567 32.4539 3.05859C32.1537 3.6147 32.4948 4.33764 32.5631 4.76862C32.2902 4.58788 32.0036 4.143 31.8399 3.82324C31.6215 4.51837 32.0309 5.33862 32.2083 5.64448C31.9354 5.714 31.5806 4.90765 31.526 4.89374C31.4714 5.65839 32.0036 6.64548 31.99 6.65938C31.6761 6.45084 31.3759 6.11718 31.103 5.63058C31.0484 6.03376 31.6761 7.32671 31.6215 7.59086C31.4169 7.41013 31.144 6.58987 30.7346 6.2284C30.6391 6.53426 30.7073 7.96623 30.4753 8.28599C30.4344 8.10526 30.3935 6.64548 30.2707 6.46474C30.066 6.81231 30.0796 7.31281 29.7931 7.68818C29.8067 7.22939 29.8204 6.47865 29.8477 5.90864C29.6839 6.15889 29.4247 6.56206 29.1927 6.96524C29.2063 6.49255 29.5884 5.50546 29.5202 5.31082C29.3155 5.7001 29.1108 6.14498 29.0562 6.11717C29.1518 5.53326 29.3428 5.03277 29.2473 4.62959C29.0289 4.87984 28.8652 5.29692 28.5377 5.46375C28.5377 5.44985 28.9607 4.11519 28.756 3.69811C28.6332 4.03178 28.5787 4.11519 28.1147 4.61569C28.2785 4.12909 28.6059 3.19761 28.333 2.73882C28.2102 2.98907 28.2512 3.28103 27.7327 3.82324C27.8418 3.54518 28.142 2.78053 27.8828 2.0715C27.8145 2.32174 27.7599 2.79443 27.4597 2.98907C27.5143 2.68321 27.719 2.00198 27.4325 1.40417C27.296 1.45978 27.2414 1.87686 27.0367 2.16881C27.0367 1.82125 27.0095 1.07051 26.8457 0.667328C26.7911 0.987089 26.6956 1.36246 26.5728 1.571C26.5319 1.34856 26.5182 0.319758 26.3272 0.208537C26.2863 0.250245 26.3135 0.959285 26.259 1.16782C26.2044 0.917577 25.7404 0.152929 25.6313 0C25.6176 0.152929 25.8769 0.764644 25.8769 1.00099C25.6722 0.778546 25.2765 0.097316 25.1537 0.111219Z" fill="#00A651"/>
<defs>
<linearGradient id="paint0_linear_489_6779" x1="12.3496" y1="59.7308" x2="48.2799" y2="59.7308" gradientUnits="userSpaceOnUse">
<stop stop-color="#8076B7"/>
<stop offset="0.07" stop-color="#9594C9"/>
<stop offset="0.25" stop-color="#CBCDE8"/>
<stop offset="0.45" stop-color="white"/>
<stop offset="0.66" stop-color="#C8D0EA"/>
<stop offset="0.82" stop-color="#8FA2D3"/>
<stop offset="1" stop-color="#8076B7"/>
</linearGradient>
<linearGradient id="paint1_linear_489_6779" x1="25.4076" y1="42.4576" x2="38.8301" y2="35.6233" gradientUnits="userSpaceOnUse">
<stop stop-color="#FEE000"/>
<stop offset="0.0815" stop-color="#F7D30F"/>
<stop offset="0.3846" stop-color="#E2AA22"/>
<stop offset="0.6496" stop-color="#D58E27"/>
<stop offset="0.8637" stop-color="#CE7F28"/>
<stop offset="1" stop-color="#CC7929"/>
</linearGradient>
<linearGradient id="paint2_linear_489_6779" x1="23.2021" y1="43.6778" x2="38.378" y2="36.7515" gradientUnits="userSpaceOnUse">
<stop stop-color="#BD6428"/>
<stop offset="1" stop-color="#E7C32B"/>
</linearGradient>
</defs>
</svg>
